<?xml version="1.0" encoding="utf-8"?>
<!-- Generator: Adobe Illustrator 27.5.0, SVG Export Plug-In . SVG Version: 6.00 Build 0)  -->
<svg version="1.1" xmlns="http://www.w3.org/2000/svg" xmlns:xlink="http://www.w3.org/1999/xlink" x="0px" y="0px"
	 viewBox="0 0 500 500" style="enable-background:new 0 0 500 500;" xml:space="preserve">
<g id="Background_Complete">
	<g>
		<g>
			<g>
				<g>
					<rect y="382.398" style="fill:#E0E0E0;" width="500" height="0.25"/>
					<rect x="101.172" y="392.989" style="fill:#E0E0E0;" width="34.404" height="0.25"/>
					<rect x="74.48" y="393.114" style="fill:#E0E0E0;" width="19.359" height="0.25"/>
					<rect x="175" y="392.528" style="fill:#E0E0E0;" width="39.239" height="0.25"/>
					<rect x="198.778" y="388.972" style="fill:#E0E0E0;" width="115.778" height="0.25"/>
					<rect x="360.681" y="389.097" style="fill:#E0E0E0;" width="52.985" height="0.25"/>
					<path style="fill:#E0E0E0;" d="M237.014,337.8H43.915c-3.147,0-5.708-2.561-5.708-5.708V60.66c0-3.147,2.561-5.708,5.708-5.708
						h193.099c3.146,0,5.707,2.561,5.707,5.708v271.432C242.721,335.239,240.16,337.8,237.014,337.8z M43.915,55.203
						c-3.01,0-5.458,2.448-5.458,5.458v271.432c0,3.01,2.448,5.458,5.458,5.458h193.099c3.009,0,5.457-2.448,5.457-5.458V60.66
						c0-3.009-2.448-5.458-5.457-5.458H43.915z"/>
					<path style="fill:#E0E0E0;" d="M453.31,337.8H260.212c-3.146,0-5.707-2.561-5.707-5.708V60.66c0-3.147,2.561-5.708,5.707-5.708
						H453.31c3.148,0,5.708,2.561,5.708,5.708v271.432C459.019,335.239,456.458,337.8,453.31,337.8z M260.212,55.203
						c-3.009,0-5.457,2.448-5.457,5.458v271.432c0,3.01,2.448,5.458,5.457,5.458H453.31c3.01,0,5.458-2.448,5.458-5.458V60.66
						c0-3.009-2.448-5.458-5.458-5.458H260.212z"/>
				</g>
			</g>
		</g>
		<g>
			<g>
				<g>
					<path style="fill:#E6E6E6;" d="M213.739,284.61v0.007c-0.55,0-1.103,0.012-1.661,0.05c-11.73,0.8-21.214,10.336-21.962,22.069
						c-0.171,2.68,0.106,5.27,0.761,7.705c2.702,10.033,3.712,20.447,3.712,30.838v30.279c0,2.195,1.78,3.975,3.975,3.975h15.175
						h15.175h65.762V284.61H213.739z"/>
					<path style="fill:#F0F0F0;" d="M318.348,308.282c0-13.624-11.508-24.559-25.334-23.616c-11.73,0.8-21.214,10.336-21.962,22.069
						c-0.171,2.68,0.106,5.27,0.762,7.705c2.702,10.033,3.712,20.447,3.712,30.838v30.279c0,2.195,1.78,3.975,3.975,3.975h30.349
						c2.195,0,3.975-1.78,3.975-3.975V343.5c0-9.747,1.062-19.499,3.666-28.892C318.05,312.595,318.348,310.474,318.348,308.282z"/>
				</g>
				<rect x="175.788" y="321.899" style="fill:#E6E6E6;" width="86.268" height="57.633"/>
				<path style="fill:#E0E0E0;" d="M202.038,228.614h-79.634c-9.895,0-17.916,8.021-17.916,17.916v88.399h115.467V246.53
					C219.954,236.635,211.932,228.614,202.038,228.614z"/>
				<path style="fill:#F0F0F0;" d="M225.458,228.614h-81.361c-9.418,0-17.053,7.635-17.053,17.053v89.262h115.467v-89.262
					C242.511,236.249,234.876,228.614,225.458,228.614z"/>
				<path style="fill:#E0E0E0;" d="M260.949,316.637h-79.516c-0.858,0-1.553,0.695-1.553,1.553v20.365
					c0,0.858,0.695,1.553,1.553,1.553h79.516c2.872,0,5.199-2.328,5.199-5.199v-13.072
					C266.149,318.965,263.821,316.637,260.949,316.637z"/>
				<g>
					<path style="fill:#E6E6E6;" d="M95.98,284.61v0.007c-0.55,0-1.103,0.012-1.661,0.05c-11.73,0.8-21.214,10.336-21.962,22.069
						c-0.171,2.68,0.106,5.27,0.761,7.705c2.702,10.033,3.712,20.447,3.712,30.838v30.279c0,2.195,1.78,3.975,3.975,3.975H95.98
						h15.175h65.762V284.61H95.98z"/>
					<path style="fill:#F0F0F0;" d="M200.589,308.282c0-13.624-11.508-24.559-25.334-23.616c-11.73,0.8-21.214,10.336-21.962,22.069
						c-0.171,2.68,0.106,5.27,0.761,7.705c2.702,10.033,3.712,20.447,3.712,30.838v30.279c0,2.195,1.78,3.975,3.975,3.975h30.349
						c2.195,0,3.975-1.78,3.975-3.975V343.5c0-9.747,1.062-19.499,3.666-28.892C200.29,312.595,200.589,310.474,200.589,308.282z"/>
				</g>
				<path style="fill:#E0E0E0;" d="M292.987,382.414H97.669c-1.592,0-2.882-1.29-2.882-2.882l0,0h201.081l0,0
					C295.868,381.124,294.578,382.414,292.987,382.414z"/>
			</g>
			<g>
				<g>
					<g>
						<rect x="85.875" y="101.458" style="fill:#E0E0E0;" width="57.475" height="59.56"/>
						<rect x="90.59" y="101.458" style="fill:#F0F0F0;" width="56.027" height="59.56"/>
						
							<rect x="93.517" y="107.919" transform="matrix(-1.836970e-16 1 -1 -1.836970e-16 249.8417 12.635)" style="fill:#FAFAFA;" width="50.173" height="46.639"/>
						<polygon style="fill:#F0F0F0;" points="118.603,118.555 105.848,140.648 131.359,140.648 						"/>
					</g>
				</g>
				<g>
					<g>
						<rect x="162.479" y="126.545" style="fill:#E0E0E0;" width="57.475" height="59.56"/>
						<rect x="167.194" y="126.545" style="fill:#F0F0F0;" width="56.027" height="59.56"/>
						
							<rect x="170.121" y="133.005" transform="matrix(-1.836970e-16 1 -1 -1.836970e-16 351.5323 -38.8827)" style="fill:#FAFAFA;" width="50.173" height="46.639"/>
						<path style="fill:#F0F0F0;" d="M200.915,165.272l5.533-9.583c2.537-4.394-0.634-9.886-5.708-9.886h-11.066
							c-5.073,0-8.244,5.492-5.708,9.886l5.533,9.583C192.037,169.666,198.378,169.666,200.915,165.272z"/>
					</g>
				</g>
			</g>
			<g>
				<g>
					<rect x="337.358" y="240.454" style="fill:#E6E6E6;" width="15.707" height="137.211"/>
					<rect x="341.503" y="377.665" style="fill:#E6E6E6;" width="87.01" height="4.734"/>
					
						<rect x="353.066" y="240.454" transform="matrix(-1 -1.224647e-16 1.224647e-16 -1 785.7227 618.1184)" style="fill:#F0F0F0;" width="79.591" height="137.211"/>
					
						<rect x="361.552" y="311.901" transform="matrix(-1 -1.224647e-16 1.224647e-16 -1 785.7227 648.3034)" style="fill:#E6E6E6;" width="62.619" height="24.501"/>
					
						<rect x="361.552" y="343.969" transform="matrix(-1 -1.224647e-16 1.224647e-16 -1 785.7227 712.438)" style="fill:#E6E6E6;" width="62.619" height="24.501"/>
					<path style="fill:#F0F0F0;" d="M401.928,325.832h-18.134c-0.875,0-1.59-0.716-1.59-1.59v-0.18c0-0.875,0.715-1.59,1.59-1.59
						h18.134c0.874,0,1.59,0.715,1.59,1.59v0.18C403.518,325.116,402.803,325.832,401.928,325.832z"/>
					<path style="fill:#F0F0F0;" d="M401.928,357.899h-18.134c-0.875,0-1.59-0.715-1.59-1.59v-0.18c0-0.875,0.715-1.59,1.59-1.59
						h18.134c0.874,0,1.59,0.715,1.59,1.59v0.18C403.518,357.183,402.803,357.899,401.928,357.899z"/>
					
						<rect x="361.552" y="248.02" transform="matrix(-1 -1.224647e-16 1.224647e-16 -1 785.7227 520.541)" style="fill:#E6E6E6;" width="62.619" height="24.501"/>
					
						<rect x="361.552" y="279.834" transform="matrix(-1 -1.224647e-16 1.224647e-16 -1 785.7227 584.1688)" style="fill:#E6E6E6;" width="62.619" height="24.501"/>
					<path style="fill:#F0F0F0;" d="M401.928,261.95h-18.134c-0.875,0-1.59-0.716-1.59-1.59v-0.18c0-0.875,0.715-1.59,1.59-1.59
						h18.134c0.874,0,1.59,0.716,1.59,1.59v0.18C403.518,261.235,402.803,261.95,401.928,261.95z"/>
					<path style="fill:#F0F0F0;" d="M401.928,293.764h-18.134c-0.875,0-1.59-0.716-1.59-1.59v-0.18c0-0.875,0.715-1.59,1.59-1.59
						h18.134c0.874,0,1.59,0.716,1.59,1.59v0.18C403.518,293.049,402.803,293.764,401.928,293.764z"/>
				</g>
				<g>
					<path style="fill:#F0F0F0;" d="M412.171,200.808h-14.75c0,0,2.561,8.842,2.561,14.045c0,5.203-11.219,25.6,4.815,25.6
						c16.033,0,4.814-20.397,4.814-25.6C409.61,209.65,412.171,200.808,412.171,200.808z"/>
					<g>
						<path style="fill:#F0F0F0;" d="M373.781,212.689c0,3.895-3.157,7.052-7.052,7.052c-3.895,0-7.052-3.157-7.052-7.052
							c0-3.895,3.157-7.052,7.052-7.052C370.624,205.637,373.781,208.794,373.781,212.689z"/>
						<path style="fill:#F0F0F0;" d="M385.852,216.05c0,3.895-3.157,7.052-7.052,7.052c-3.895,0-7.052-3.157-7.052-7.052
							c0-3.895,3.157-7.052,7.052-7.052C382.694,208.998,385.852,212.155,385.852,216.05z"/>
						<path style="fill:#F0F0F0;" d="M396.165,213.335c0,3.895-3.157,7.052-7.052,7.052c-3.895,0-7.052-3.157-7.052-7.052
							c0-3.895,3.157-7.052,7.052-7.052C393.008,206.283,396.165,209.44,396.165,213.335z"/>
						<path style="fill:#E6E6E6;" d="M354.111,216.182v8.052c0,8.921,8.628,16.22,19.173,16.22h9.518
							c10.545,0,19.173-7.299,19.173-16.22v-8.052H354.111z"/>
					</g>
				</g>
			</g>
			<g>
				<path style="fill:#E0E0E0;" d="M323.364,175.01c-11.062,0-20.029-8.967-20.029-20.029s8.967-20.029,20.029-20.029h2.457v40.059
					H323.364z"/>
				
					<ellipse transform="matrix(0.2278 -0.9737 0.9737 0.2278 100.6938 436.9306)" style="fill:#F0F0F0;" cx="325.821" cy="154.98" rx="20.029" ry="20.029"/>
				<path style="fill:#E0E0E0;" d="M326.724,157.48c-1.381,0-2.5-1.119-2.5-2.5c0-1.381,1.119-2.5,2.5-2.5
					c11.924,0,21.625-9.701,21.625-21.625V97.613c0-1.381,1.119-2.5,2.5-2.5c1.381,0,2.5,1.119,2.5,2.5v33.242
					C353.349,145.537,341.404,157.48,326.724,157.48z"/>
				<polygon style="fill:#F0F0F0;" points="374.491,130.791 327.206,130.791 332.49,87.467 369.208,87.467 				"/>
			</g>
		</g>
	</g>
</g>
<g id="Background_Simple" style="display:none;">
	<path style="display:inline;fill:#407BFF;" d="M412.118,129.903c-29.304-42.675-79.43,11.243-109.34,33.057
		c-41.397,30.192-73.373,4.361-111.906-15.474C106.328,103.967,19.611,174.34,79.428,261.641
		c45.327,66.153,149.349,65.212,207.482,18.078c15.47-12.543,24.128-33.563,39.883-44.59c15.855-11.097,32.557-9.393,49.769-17.301
		C406.265,204.181,437.007,166.149,412.118,129.903z"/>
	<path style="display:inline;opacity:0.9;fill:#FFFFFF;" d="M412.118,129.903c-29.304-42.675-79.43,11.243-109.34,33.057
		c-41.397,30.192-73.373,4.361-111.906-15.474C106.328,103.967,19.611,174.34,79.428,261.641
		c45.327,66.153,149.349,65.212,207.482,18.078c15.47-12.543,24.128-33.563,39.883-44.59c15.855-11.097,32.557-9.393,49.769-17.301
		C406.265,204.181,437.007,166.149,412.118,129.903z"/>
</g>
<g id="Shadow">
	<ellipse style="fill:#F5F5F5;" cx="250" cy="416.238" rx="193.889" ry="11.323"/>
</g>
<g id="Character">
	<g>
		<g>
			<g>
				<path style="fill:#407BFF;" d="M401.291,326.692l-1.715-13.295c-0.528-4.091-4.012-7.155-8.137-7.155h-44.299
					c-4.125,0-7.609-3.063-8.137-7.155l-9.197-71.274c-0.633-4.908,3.189-9.255,8.137-9.255h40.065c4.948,0,8.77-4.347,8.137-9.255
					l-1.715-13.295c-0.528-4.091-4.012-7.155-8.137-7.155h-44.299c-4.125,0-7.609-3.063-8.137-7.155l-8.514-65.982
					c-0.528-4.091-4.012-7.155-8.137-7.155h-13.159c-4.948,0-8.77,4.347-8.137,9.255l7.972,61.782
					c0.633,4.907-3.189,9.255-8.137,9.255H178.504c-4.125,0-7.609-3.063-8.137-7.155l-8.514-65.982
					c-0.528-4.091-4.012-7.155-8.137-7.155h-13.159c-4.948,0-8.77,4.347-8.137,9.255l7.972,61.782
					c0.633,4.907-3.189,9.255-8.137,9.255H92.19c-4.948,0-8.77,4.347-8.137,9.255l1.715,13.295c0.528,4.092,4.012,7.155,8.137,7.155
					h44.299c4.125,0,7.609,3.063,8.137,7.155l9.196,71.274c0.633,4.907-3.189,9.255-8.137,9.255h-40.064
					c-4.948,0-8.771,4.347-8.137,9.255l1.715,13.295c0.528,4.092,4.012,7.155,8.137,7.155h44.299c4.125,0,7.609,3.063,8.137,7.155
					l8.514,65.982c0.528,4.091,4.012,7.155,8.137,7.155h13.159c4.948,0,8.77-4.347,8.137-9.255l-7.972-61.783
					c-0.633-4.908,3.189-9.255,8.137-9.255H306.84c4.125,0,7.609,3.063,8.137,7.155l8.514,65.982
					c0.528,4.091,4.012,7.155,8.137,7.155h13.159c4.948,0,8.77-4.347,8.137-9.255l-7.972-61.783
					c-0.633-4.908,3.189-9.255,8.137-9.255h40.065C398.102,335.946,401.924,331.599,401.291,326.692z M185.513,299.088
					l-9.197-71.274c-0.633-4.908,3.189-9.255,8.137-9.255h107.239c4.125,0,7.609,3.063,8.137,7.155l9.196,71.274
					c0.633,4.907-3.189,9.255-8.137,9.255H193.651C189.525,306.242,186.041,303.179,185.513,299.088z"/>
				<path style="opacity:0.4;" d="M401.291,326.692l-1.715-13.295c-0.528-4.091-4.012-7.155-8.137-7.155h-44.299
					c-4.125,0-7.609-3.063-8.137-7.155l-9.197-71.274c-0.633-4.908,3.189-9.255,8.137-9.255h40.065c4.948,0,8.77-4.347,8.137-9.255
					l-1.715-13.295c-0.528-4.091-4.012-7.155-8.137-7.155h-44.299c-4.125,0-7.609-3.063-8.137-7.155l-8.514-65.982
					c-0.528-4.091-4.012-7.155-8.137-7.155h-13.159c-4.948,0-8.77,4.347-8.137,9.255l7.972,61.782
					c0.633,4.907-3.189,9.255-8.137,9.255H178.504c-4.125,0-7.609-3.063-8.137-7.155l-8.514-65.982
					c-0.528-4.091-4.012-7.155-8.137-7.155h-13.159c-4.948,0-8.77,4.347-8.137,9.255l7.972,61.782
					c0.633,4.907-3.189,9.255-8.137,9.255H92.19c-4.948,0-8.77,4.347-8.137,9.255l1.715,13.295c0.528,4.092,4.012,7.155,8.137,7.155
					h44.299c4.125,0,7.609,3.063,8.137,7.155l9.196,71.274c0.633,4.907-3.189,9.255-8.137,9.255h-40.064
					c-4.948,0-8.771,4.347-8.137,9.255l1.715,13.295c0.528,4.092,4.012,7.155,8.137,7.155h44.299c4.125,0,7.609,3.063,8.137,7.155
					l8.514,65.982c0.528,4.091,4.012,7.155,8.137,7.155h13.159c4.948,0,8.77-4.347,8.137-9.255l-7.972-61.783
					c-0.633-4.908,3.189-9.255,8.137-9.255H306.84c4.125,0,7.609,3.063,8.137,7.155l8.514,65.982
					c0.528,4.091,4.012,7.155,8.137,7.155h13.159c4.948,0,8.77-4.347,8.137-9.255l-7.972-61.783
					c-0.633-4.908,3.189-9.255,8.137-9.255h40.065C398.102,335.946,401.924,331.599,401.291,326.692z M185.513,299.088
					l-9.197-71.274c-0.633-4.908,3.189-9.255,8.137-9.255h107.239c4.125,0,7.609,3.063,8.137,7.155l9.196,71.274
					c0.633,4.907-3.189,9.255-8.137,9.255H193.651C189.525,306.242,186.041,303.179,185.513,299.088z"/>
			</g>
			<g>
				<path style="fill:#407BFF;" d="M212.447,374.708l-0.98-7.596l0.992-0.129l0.98,7.596L212.447,374.708z M352.748,272.509
					l-3.515-27.245l0.992-0.128l3.515,27.245L352.748,272.509z M186.431,173.073l-1.413-10.946l0.992-0.128l1.413,10.946
					L186.431,173.073z M184.15,155.4l-2.397-18.572l0.992-0.128l2.397,18.572L184.15,155.4z"/>
				<path style="opacity:0.3;" d="M212.447,374.708l-0.98-7.596l0.992-0.129l0.98,7.596L212.447,374.708z M352.748,272.509
					l-3.515-27.245l0.992-0.128l3.515,27.245L352.748,272.509z M186.431,173.073l-1.413-10.946l0.992-0.128l1.413,10.946
					L186.431,173.073z M184.15,155.4l-2.397-18.572l0.992-0.128l2.397,18.572L184.15,155.4z"/>
			</g>
			<g>
				<path style="fill:#407BFF;" d="M415.947,326.692l-1.715-13.295c-0.528-4.091-4.012-7.155-8.137-7.155h-44.299
					c-4.125,0-7.609-3.063-8.137-7.155l-9.197-71.274c-0.633-4.908,3.189-9.255,8.137-9.255h40.065c4.948,0,8.77-4.347,8.137-9.255
					l-1.715-13.295c-0.528-4.091-4.012-7.155-8.137-7.155h-44.299c-4.125,0-7.609-3.063-8.137-7.155l-8.514-65.982
					c-0.528-4.091-4.012-7.155-8.137-7.155h-13.159c-4.948,0-8.77,4.347-8.137,9.255l7.972,61.782
					c0.633,4.907-3.189,9.255-8.137,9.255H193.16c-4.125,0-7.609-3.063-8.137-7.155l-8.514-65.982
					c-0.528-4.091-4.012-7.155-8.137-7.155h-13.159c-4.948,0-8.77,4.347-8.137,9.255l7.972,61.782
					c0.633,4.907-3.189,9.255-8.137,9.255h-40.065c-4.948,0-8.77,4.347-8.137,9.255l1.715,13.295
					c0.528,4.092,4.012,7.155,8.137,7.155h44.299c4.125,0,7.609,3.063,8.137,7.155l9.196,71.274
					c0.633,4.907-3.189,9.255-8.137,9.255h-40.064c-4.948,0-8.77,4.347-8.137,9.255l1.715,13.295
					c0.528,4.092,4.012,7.155,8.137,7.155h44.299c4.125,0,7.609,3.063,8.137,7.155l8.514,65.982
					c0.528,4.091,4.012,7.155,8.137,7.155h13.159c4.948,0,8.77-4.347,8.137-9.255l-7.972-61.783
					c-0.633-4.908,3.189-9.255,8.137-9.255h107.239c4.125,0,7.609,3.063,8.137,7.155l8.514,65.982
					c0.528,4.091,4.012,7.155,8.137,7.155h13.159c4.948,0,8.77-4.347,8.137-9.255l-7.972-61.783
					c-0.633-4.908,3.189-9.255,8.137-9.255h40.065C412.758,335.946,416.58,331.599,415.947,326.692z M200.169,299.088l-9.197-71.274
					c-0.633-4.908,3.189-9.255,8.137-9.255h107.239c4.125,0,7.609,3.063,8.137,7.155l9.196,71.274
					c0.633,4.907-3.189,9.255-8.137,9.255H208.306C204.181,306.242,200.697,303.179,200.169,299.088z"/>
				<path style="opacity:0.3;" d="M415.947,326.692l-1.715-13.295c-0.528-4.091-4.012-7.155-8.137-7.155h-44.299
					c-4.125,0-7.609-3.063-8.137-7.155l-9.197-71.274c-0.633-4.908,3.189-9.255,8.137-9.255h40.065c4.948,0,8.77-4.347,8.137-9.255
					l-1.715-13.295c-0.528-4.091-4.012-7.155-8.137-7.155h-44.299c-4.125,0-7.609-3.063-8.137-7.155l-8.514-65.982
					c-0.528-4.091-4.012-7.155-8.137-7.155h-13.159c-4.948,0-8.77,4.347-8.137,9.255l7.972,61.782
					c0.633,4.907-3.189,9.255-8.137,9.255H193.16c-4.125,0-7.609-3.063-8.137-7.155l-8.514-65.982
					c-0.528-4.091-4.012-7.155-8.137-7.155h-13.159c-4.948,0-8.77,4.347-8.137,9.255l7.972,61.782
					c0.633,4.907-3.189,9.255-8.137,9.255h-40.065c-4.948,0-8.77,4.347-8.137,9.255l1.715,13.295
					c0.528,4.092,4.012,7.155,8.137,7.155h44.299c4.125,0,7.609,3.063,8.137,7.155l9.196,71.274
					c0.633,4.907-3.189,9.255-8.137,9.255h-40.064c-4.948,0-8.77,4.347-8.137,9.255l1.715,13.295
					c0.528,4.092,4.012,7.155,8.137,7.155h44.299c4.125,0,7.609,3.063,8.137,7.155l8.514,65.982
					c0.528,4.091,4.012,7.155,8.137,7.155h13.159c4.948,0,8.77-4.347,8.137-9.255l-7.972-61.783
					c-0.633-4.908,3.189-9.255,8.137-9.255h107.239c4.125,0,7.609,3.063,8.137,7.155l8.514,65.982
					c0.528,4.091,4.012,7.155,8.137,7.155h13.159c4.948,0,8.77-4.347,8.137-9.255l-7.972-61.783
					c-0.633-4.908,3.189-9.255,8.137-9.255h40.065C412.758,335.946,416.58,331.599,415.947,326.692z M200.169,299.088l-9.197-71.274
					c-0.633-4.908,3.189-9.255,8.137-9.255h107.239c4.125,0,7.609,3.063,8.137,7.155l9.196,71.274
					c0.633,4.907-3.189,9.255-8.137,9.255H208.306C204.181,306.242,200.697,303.179,200.169,299.088z"/>
			</g>
			<path style="fill:#407BFF;" d="M359.442,413.363h-13.158c-2.672,0-4.944-1.998-5.286-4.648l-8.514-65.981
				c-0.71-5.508-5.434-9.662-10.988-9.662H214.257c-3.184,0-6.217,1.372-8.32,3.764c-2.104,2.392-3.077,5.575-2.669,8.734
				l7.972,61.782c0.199,1.542-0.257,3.034-1.283,4.201c-1.026,1.167-2.447,1.811-4.002,1.811h-13.158
				c-2.671,0-4.944-1.998-5.286-4.648l-8.514-65.981c-0.711-5.508-5.436-9.662-10.988-9.662h-44.3c-2.672,0-4.944-1.998-5.285-4.647
				l-1.716-13.295c-0.199-1.541,0.257-3.034,1.284-4.202c1.026-1.167,2.447-1.81,4.002-1.81h40.064c3.185,0,6.218-1.372,8.321-3.765
				c2.102-2.391,3.075-5.574,2.667-8.733l-9.196-71.273c-0.711-5.508-5.436-9.662-10.988-9.662h-44.3
				c-2.672,0-4.944-1.998-5.285-4.648l-1.716-13.294c-0.199-1.542,0.257-3.034,1.283-4.202c1.027-1.167,2.449-1.81,4.003-1.81
				h40.064c3.185,0,6.218-1.372,8.321-3.764c2.103-2.392,3.075-5.576,2.667-8.733l-7.972-61.781
				c-0.199-1.541,0.257-3.034,1.283-4.202c1.027-1.167,2.449-1.81,4.003-1.81h13.158c2.672,0,4.944,1.998,5.285,4.647l8.515,65.982
				c0.71,5.508,5.434,9.662,10.988,9.662h107.239c3.185,0,6.218-1.372,8.321-3.764c2.102-2.392,3.074-5.576,2.667-8.733
				l-7.972-61.781c-0.199-1.541,0.257-3.034,1.283-4.202c1.027-1.167,2.448-1.81,4.003-1.81h13.158c2.672,0,4.944,1.998,5.285,4.647
				l8.514,65.982c0.712,5.508,5.436,9.662,10.989,9.662h44.299c2.672,0,4.944,1.998,5.286,4.647l1.715,13.295
				c0.199,1.543-0.257,3.035-1.283,4.201c-1.025,1.168-2.447,1.811-4.002,1.811h-40.064c-3.185,0-6.218,1.372-8.321,3.763
				c-2.103,2.393-3.075,5.576-2.668,8.733l9.196,71.275c0.712,5.508,5.435,9.661,10.989,9.661h44.299
				c2.672,0,4.944,1.998,5.286,4.648l1.715,13.294c0.199,1.542-0.256,3.034-1.282,4.201c-1.027,1.168-2.448,1.811-4.003,1.811
				h-40.065c-3.185,0-6.218,1.372-8.32,3.764c-2.103,2.392-3.076,5.575-2.669,8.734l7.972,61.782
				c0.199,1.542-0.257,3.034-1.283,4.201C362.419,412.72,360.997,413.363,359.442,413.363z M214.257,332.821h107.239
				c5.68,0,10.511,4.248,11.236,9.881l8.514,65.982c0.326,2.525,2.492,4.43,5.038,4.43h13.158c1.482,0,2.837-0.613,3.814-1.726
				c0.979-1.112,1.412-2.534,1.223-4.005l-7.972-61.782c-0.417-3.229,0.578-6.484,2.729-8.932c2.15-2.445,5.251-3.848,8.508-3.848
				h40.065c1.481,0,2.836-0.612,3.815-1.726c0.977-1.112,1.411-2.535,1.222-4.005l-1.715-13.294c-0.326-2.525-2.492-4.43-5.038-4.43
				h-44.299c-5.679,0-10.51-4.247-11.237-9.88l-9.196-71.274c-0.417-3.229,0.578-6.484,2.728-8.931
				c2.151-2.446,5.253-3.848,8.509-3.848h40.064c1.482,0,2.837-0.613,3.814-1.726c0.979-1.112,1.412-2.534,1.223-4.004
				l-1.715-13.295c-0.326-2.525-2.492-4.429-5.038-4.429h-44.299c-5.679,0-10.51-4.247-11.237-9.879l-8.514-65.982
				c-0.325-2.525-2.49-4.429-5.037-4.429h-13.158c-1.481,0-2.836,0.613-3.815,1.725c-0.978,1.114-1.412,2.536-1.223,4.005
				l7.972,61.781c0.417,3.23-0.577,6.484-2.727,8.931c-2.15,2.446-5.252,3.849-8.509,3.849H193.16
				c-5.679,0-10.51-4.247-11.236-9.879l-8.515-65.982c-0.325-2.525-2.49-4.429-5.037-4.429h-13.158
				c-1.482,0-2.837,0.613-3.816,1.725c-0.978,1.114-1.412,2.536-1.223,4.005l7.972,61.781c0.417,3.23-0.578,6.484-2.728,8.931
				c-2.151,2.446-5.252,3.849-8.509,3.849h-40.064c-1.481,0-2.836,0.613-3.815,1.725c-0.978,1.114-1.412,2.536-1.223,4.005
				l1.716,13.294c0.325,2.526,2.49,4.43,5.037,4.43h44.3c5.678,0,10.509,4.247,11.236,9.879l9.196,71.274
				c0.417,3.23-0.578,6.485-2.727,8.931c-2.151,2.445-5.252,3.849-8.509,3.849h-40.064c-1.481,0-2.837,0.612-3.814,1.726
				c-0.979,1.112-1.413,2.535-1.224,4.005l1.716,13.295c0.325,2.524,2.491,4.429,5.037,4.429h44.3
				c5.678,0,10.509,4.248,11.236,9.881l8.514,65.982c0.326,2.525,2.492,4.43,5.038,4.43h13.158c1.482,0,2.836-0.613,3.814-1.726
				c0.978-1.112,1.413-2.534,1.223-4.005l-7.972-61.782c-0.416-3.229,0.578-6.484,2.73-8.932
				C207.899,334.224,211,332.821,214.257,332.821z M315.546,309.367H208.307c-5.679,0-10.509-4.247-11.237-9.88l-9.196-71.274
				c-0.417-3.229,0.578-6.484,2.729-8.931c2.151-2.446,5.252-3.848,8.509-3.848H306.35c5.678,0,10.509,4.247,11.236,9.879
				l9.196,71.274c0.417,3.23-0.577,6.485-2.728,8.931C321.904,307.964,318.803,309.367,315.546,309.367z M199.11,215.685
				c-3.185,0-6.217,1.372-8.321,3.763c-2.103,2.393-3.075,5.576-2.668,8.733l9.196,71.275c0.711,5.508,5.436,9.661,10.989,9.661
				h107.239c3.185,0,6.218-1.372,8.321-3.765c2.103-2.391,3.074-5.574,2.667-8.733l-9.196-71.273
				c-0.712-5.508-5.436-9.662-10.988-9.662H199.11z"/>
		</g>
		<g>
			<polygon style="fill:#E4897B;" points="275.917,374.84 283.774,379.434 295.623,361.946 287.766,357.352 			"/>
			<path style="fill:#263238;" d="M284.052,379.171l-6.456-7.93c-0.235-0.289-0.626-0.36-0.941-0.171l-7.01,4.204
				c-0.727,0.436-0.887,1.497-0.334,2.154c2.298,2.726,3.545,3.926,6.384,7.413c1.747,2.145,5.136,6.764,7.548,9.727
				c2.359,2.898,5.47,0.736,4.731-0.714c-3.314-6.5-3.445-10.013-3.397-13.15C284.588,380.138,284.396,379.593,284.052,379.171z"/>
			<path style="fill:#407BFF;" d="M287,384.136c-0.061,0-0.123-0.005-0.186-0.015c-1.282-0.201-2.643-2.438-3.339-3.753
				c-0.03-0.057-0.021-0.127,0.022-0.175c0.046-0.048,0.113-0.063,0.173-0.036c0.421,0.182,4.119,1.811,4.345,3.031
				c0.041,0.221-0.026,0.424-0.195,0.589C287.576,384.016,287.301,384.136,287,384.136z M283.96,380.62
				c1.055,1.892,2.126,3.078,2.901,3.199c0.277,0.046,0.521-0.041,0.746-0.261c0.097-0.094,0.131-0.194,0.108-0.314
				C287.567,382.44,285.241,381.213,283.96,380.62z"/>
			<path style="fill:#407BFF;" d="M286.56,381.037c-1.073,0-2.376-0.284-3.018-0.604c-0.048-0.024-0.08-0.072-0.084-0.126
				c-0.004-0.054,0.021-0.105,0.066-0.137c0.084-0.058,2.104-1.428,3.531-1.146c0.431,0.084,0.767,0.307,1.002,0.663
				c0.309,0.468,0.194,0.768,0.045,0.935C287.839,380.921,287.246,381.037,286.56,381.037z M283.932,380.272
				c1.229,0.486,3.49,0.66,3.943,0.148c0.042-0.048,0.173-0.194-0.071-0.565c-0.191-0.289-0.454-0.463-0.806-0.532
				C285.95,379.12,284.495,379.927,283.932,380.272z"/>
			<path style="fill:#E4897B;" d="M263.603,237.127l0.377,1.522l0.427,1.644c0.295,1.101,0.619,2.208,0.956,3.313
				c0.643,2.221,1.344,4.443,2.11,6.649c0.774,2.202,1.53,4.421,2.372,6.611c0.414,1.098,0.821,2.201,1.257,3.293l0.51,1.31
				c0.077,0.182,0.205,0.395,0.397,0.628c0.768,0.971,2.515,2.037,4.434,2.8c1.931,0.816,4.094,1.421,6.304,1.957
				c2.217,0.519,4.502,0.948,6.812,1.301c2.296,0.389,4.679,0.648,6.956,0.898l0.083,4.703c-5.019,0.492-9.936,0.548-15.018-0.002
				c-2.537-0.27-5.091-0.728-7.712-1.495c-1.306-0.4-2.629-0.895-3.969-1.564c-1.333-0.684-2.712-1.522-3.993-2.807
				c-0.636-0.641-1.243-1.394-1.752-2.264c-0.13-0.213-0.243-0.447-0.36-0.672l-0.23-0.469l-0.404-0.833
				c-0.542-1.109-1.081-2.221-1.583-3.351c-1.013-2.254-2.007-4.526-2.878-6.851c-0.89-2.318-1.73-4.662-2.492-7.048
				c-0.363-1.2-0.713-2.406-1.038-3.632l-0.474-1.855c-0.145-0.657-0.272-1.213-0.418-2.003L263.603,237.127z"/>
			<g>
				<path style="fill:#407BFF;" d="M260.631,227.219c3.751,0.955,6.376,16.392,6.376,16.392l-10.337,7.03
					c0,0-9.911-15.573-7.026-19.698C252.648,226.648,255.156,225.825,260.631,227.219z"/>
				<path style="opacity:0.2;" d="M260.631,227.219c3.751,0.955,6.376,16.392,6.376,16.392l-10.337,7.03
					c0,0-9.911-15.573-7.026-19.698C252.648,226.648,255.156,225.825,260.631,227.219z"/>
			</g>
			<g>
				<path style="fill:#407BFF;" d="M260.97,232.83l-8.03,1.86l-0.77,7.85c2.1,4.33,4.5,8.1,4.5,8.1l6.27-4.26
					C262.67,242.77,261.99,235.27,260.97,232.83z"/>
				<path style="opacity:0.3;" d="M260.97,232.83l-8.03,1.86l-0.77,7.85c2.1,4.33,4.5,8.1,4.5,8.1l6.27-4.26
					C262.67,242.77,261.99,235.27,260.97,232.83z"/>
			</g>
			<path style="fill:#E4897B;" d="M295.176,268.991l6.456-6.543l0.849,9.217c0,0-4.84,3.276-8.189,1.515L295.176,268.991z"/>
			<polygon style="fill:#E4897B;" points="309.221,261.47 309.514,269.224 302.481,271.664 301.632,262.448 			"/>
			<polygon style="fill:#E4897B;" points="262.968,392.831 272.069,392.831 274.996,371.754 265.894,371.754 			"/>
			<path style="fill:#263238;" d="M272.668,390.106l-9.025-4.806c-0.328-0.175-0.716-0.089-0.933,0.207l-4.831,6.593
				c-0.501,0.684-0.237,1.724,0.527,2.115c3.176,1.621,4.79,2.244,8.759,4.358c2.442,1.3,8.569,4.889,11.941,6.684
				c3.298,1.756,5.327-1.443,4.084-2.493c-5.575-4.706-8.27-8.538-9.442-11.449C273.537,390.79,273.149,390.362,272.668,390.106z"/>
			<path style="fill:#263238;" d="M222.448,191.667c-0.227,10.005-12.468,5.868-13.837,17.389
				c-0.77,6.479-8.614,7.141-10.028,13.028c-1.361,5.667,4.167,9.789,0,16.845c-5.579,9.448-8.699,25.932,22.606,27.638
				c23.285,1.269,31.467-22.373,27.524-36.91c-3.942-14.537-6.158-16.768-1.824-20.768s11.267-6.052,9.052-18.222
				c-1.719-9.445-5.896-8.333-5.896-8.333C249.864,177.092,222.952,169.417,222.448,191.667z"/>
			<g>
				<polygon style="fill:#CE6F64;" points="295.618,361.95 289.512,370.965 281.652,366.369 287.758,357.354 				"/>
				<polygon style="fill:#CE6F64;" points="265.891,371.759 274.996,371.759 273.484,382.624 264.378,382.624 				"/>
			</g>
			<g>
				<path style="fill:#407BFF;" d="M260.631,227.219c0,0,4.336,1.527-4.35,54.933c-14.668,0-29.828,0-36.966,0
					c0.62-15.045,0.638-24.322-6.553-55.197c0,0,7.745-1.685,15.697-2.068c6.22-0.3,11.317-0.498,16.785,0.001
					C252.455,225.545,260.631,227.219,260.631,227.219z"/>
				<path style="opacity:0.2;" d="M260.631,227.219c0,0,4.336,1.527-4.35,54.933c-14.668,0-29.828,0-36.966,0
					c0.62-15.045,0.638-24.322-6.553-55.197c0,0,7.745-1.685,15.697-2.068c6.22-0.3,11.317-0.498,16.785,0.001
					C252.455,225.545,260.631,227.219,260.631,227.219z"/>
			</g>
			<path style="fill:#E4897B;" d="M230.123,205.986c1.059,5.401,2.115,15.297-1.663,18.9c0,0,1.476,5.479,11.512,5.479
				c9.653,0,5.274-5.478,5.274-5.478c-6.023-1.438-5.867-5.907-4.818-10.103L230.123,205.986z"/>
			<path style="fill:#CE6F64;" d="M234.324,209.576l6.099,5.204c-0.252,0.993-0.447,2-0.518,2.979
				c-2.301-0.333-5.461-2.858-5.706-5.267C234.078,211.29,234.128,210.136,234.324,209.576z"/>
			<path style="fill:#E4897B;" d="M229.488,191.756c-1.043,8.973-1.676,12.748,1.992,18.106c5.517,8.059,16.766,7.377,20.468-1.103
				c3.333-7.633,4.478-21.024-3.578-26.11C240.434,177.637,230.531,182.783,229.488,191.756z"/>
			<path style="fill:#263238;" d="M229.444,197.06c1.264,2.356,20.706-8.387,18.493-14.165c-2.213-5.778-7.998-3.674-7.998-3.674
				s-10.273,2.333-11.995,7.667C226.222,192.222,229.444,197.06,229.444,197.06z"/>
			<path style="fill:#E4897B;" d="M225.699,198.085c0.173,1.851,1.166,3.478,2.333,4.47c1.755,1.492,3.507,0.168,3.751-1.98
				c0.22-1.934-0.429-5.04-2.543-5.703C227.157,194.218,225.501,195.969,225.699,198.085z"/>
			<g>
				<path style="fill:#407BFF;" d="M256.281,282.152c0,0,57.538,5.536,56.941,33.293c-0.62,28.87-21.354,54.865-21.354,54.865
					L281,364.159c0,0,11.956-25.407,11.378-42.721c-0.495-14.802-55.673-17.638-55.673-17.638l-7.613-21.648H256.281z"/>
				<path style="opacity:0.6;fill:#FAFAFA;" d="M256.281,282.152c0,0,57.538,5.536,56.941,33.293
					c-0.62,28.87-21.354,54.865-21.354,54.865L281,364.159c0,0,11.956-25.407,11.378-42.721
					c-0.495-14.802-55.673-17.638-55.673-17.638l-7.613-21.648H256.281z"/>
			</g>
			<g>
				<path style="fill:#407BFF;" d="M276.33,298.42l1.16,11.8c8.05,2.52,14.24,5.97,14.85,10.66
					C293.7,310.44,286.42,304.27,276.33,298.42z"/>
				<path style="opacity:0.4;fill:#FAFAFA;" d="M276.33,298.42l1.16,11.8c8.05,2.52,14.24,5.97,14.85,10.66
					C293.7,310.44,286.42,304.27,276.33,298.42z"/>
			</g>
			<g>
				<path style="fill:#407BFF;" d="M246.519,282.152c0,0,39.441,13.082,40.435,29.267c1.831,29.807-11.272,69.101-11.272,69.101
					H263.27c0,0,0.703-26.073,2.187-53.077c1.865-33.931-58.002-0.47-46.141-45.291H246.519z"/>
				<path style="opacity:0.6;fill:#FAFAFA;" d="M246.519,282.152c0,0,39.441,13.082,40.435,29.267
					c1.831,29.807-11.272,69.101-11.272,69.101H263.27c0,0,0.703-26.073,2.187-53.077c1.865-33.931-58.002-0.47-46.141-45.291
					H246.519z"/>
			</g>
			<path style="fill:#263238;" d="M242.506,196.645c-0.129,0.723,0.149,1.377,0.621,1.462c0.472,0.084,0.96-0.433,1.089-1.156
				c0.129-0.723-0.149-1.377-0.621-1.462S242.636,195.923,242.506,196.645z"/>
			<path style="fill:#263238;" d="M250.675,198.107c-0.129,0.723,0.149,1.377,0.621,1.461c0.472,0.085,0.96-0.433,1.089-1.155
				c0.129-0.723-0.149-1.377-0.621-1.462C251.292,196.867,250.804,197.384,250.675,198.107z"/>
			<path style="fill:#263238;" d="M251.548,196.954l1.825-0.19C253.373,196.764,252.24,197.96,251.548,196.954z"/>
			<path style="fill:#DE5753;" d="M248.294,198.962c0,0,0.67,3.33,1.751,5.073c-1.113,0.72-2.663,0.023-2.663,0.023L248.294,198.962
				z"/>
			<path style="fill:#263238;" d="M243.216,205.936c-0.018,0-0.036-0.003-0.053-0.011c-2.286-0.961-3.145-3.294-3.181-3.392
				c-0.026-0.071,0.011-0.15,0.083-0.176c0.069-0.024,0.15,0.011,0.176,0.083c0.008,0.023,0.856,2.318,3.028,3.231
				c0.07,0.03,0.103,0.11,0.074,0.18C243.321,205.904,243.27,205.936,243.216,205.936z"/>
			<path style="fill:#263238;" d="M241.601,193.407c-0.076,0-0.151-0.031-0.206-0.092c-0.101-0.113-0.091-0.287,0.023-0.388
				c1.721-1.529,3.568-1.046,3.645-1.026c0.147,0.04,0.232,0.19,0.193,0.336c-0.039,0.146-0.186,0.235-0.337,0.194
				c-0.067-0.018-1.645-0.418-3.136,0.906C241.731,193.384,241.666,193.407,241.601,193.407z"/>
			<path style="fill:#263238;" d="M255.133,194.856c-0.106,0-0.207-0.061-0.252-0.165c-0.801-1.84-2.447-2.138-2.464-2.141
				c-0.149-0.025-0.25-0.167-0.226-0.317c0.026-0.149,0.163-0.251,0.317-0.225c0.079,0.013,1.958,0.352,2.876,2.463
				c0.061,0.14-0.003,0.301-0.143,0.362C255.207,194.849,255.17,194.856,255.133,194.856z"/>
			<path style="fill:#407BFF;" d="M276.084,393.348c-1.077,0-2.524-1.122-3.339-1.839c-0.046-0.04-0.064-0.103-0.044-0.161
				c0.018-0.059,0.07-0.1,0.131-0.104c0.365-0.034,3.614-0.308,4.303,0.586c0.147,0.19,0.177,0.425,0.085,0.676
				c-0.159,0.436-0.432,0.707-0.81,0.804C276.307,393.335,276.197,393.348,276.084,393.348z M273.224,391.519
				c1.317,1.103,2.457,1.664,3.111,1.494c0.278-0.07,0.474-0.271,0.598-0.611c0.057-0.155,0.044-0.278-0.039-0.386
				C276.45,391.44,274.352,391.449,273.224,391.519z"/>
			<path style="fill:#407BFF;" d="M272.846,391.547c-0.053,0-0.102-0.027-0.13-0.072c-0.028-0.046-0.03-0.104-0.005-0.151
				c0.052-0.098,1.281-2.381,2.539-2.683c0.32-0.077,0.622-0.023,0.89,0.165c0.393,0.274,0.398,0.587,0.334,0.801
				c-0.276,0.921-2.524,1.91-3.624,1.94C272.849,391.547,272.847,391.547,272.846,391.547z M275.526,388.912
				c-0.066,0-0.135,0.008-0.205,0.025c-0.897,0.215-1.845,1.681-2.197,2.277c1.048-0.164,2.851-1.006,3.058-1.695
				c0.033-0.111,0.047-0.28-0.216-0.464C275.828,388.96,275.683,388.912,275.526,388.912z"/>
			<path style="fill:#263238;" d="M243.38,195.492l1.825-0.19C245.205,195.303,244.072,196.499,243.38,195.492z"/>
			<path style="fill:#263238;" d="M218.762,279.983l-0.295,3.309c-0.129,0.257,0.175,0.518,0.602,0.518h37.394
				c0.333,0,0.609-0.163,0.63-0.373l0.333-3.309c0.023-0.229-0.266-0.423-0.63-0.423h-37.433
				C219.089,279.705,218.845,279.817,218.762,279.983z"/>
			<g>
				<path style="fill:#407BFF;" d="M223.789,284.168h-1.002c-0.2,0-0.352-0.103-0.338-0.229l0.47-4.299
					c0.014-0.126,0.188-0.229,0.388-0.229h1.003c0.2,0,0.352,0.103,0.338,0.229l-0.47,4.299
					C224.164,284.065,223.989,284.168,223.789,284.168z"/>
				<path style="opacity:0.6;fill:#FAFAFA;" d="M223.789,284.168h-1.002c-0.2,0-0.352-0.103-0.338-0.229l0.47-4.299
					c0.014-0.126,0.188-0.229,0.388-0.229h1.003c0.2,0,0.352,0.103,0.338,0.229l-0.47,4.299
					C224.164,284.065,223.989,284.168,223.789,284.168z"/>
			</g>
			<g>
				<path style="fill:#407BFF;" d="M253.646,284.168h-1.003c-0.2,0-0.352-0.103-0.338-0.229l0.47-4.299
					c0.014-0.126,0.188-0.229,0.388-0.229h1.003c0.2,0,0.352,0.103,0.338,0.229l-0.47,4.299
					C254.02,284.065,253.846,284.168,253.646,284.168z"/>
				<path style="opacity:0.6;fill:#FAFAFA;" d="M253.646,284.168h-1.003c-0.2,0-0.352-0.103-0.338-0.229l0.47-4.299
					c0.014-0.126,0.188-0.229,0.388-0.229h1.003c0.2,0,0.352,0.103,0.338,0.229l-0.47,4.299
					C254.02,284.065,253.846,284.168,253.646,284.168z"/>
			</g>
			<g>
				<path style="fill:#407BFF;" d="M238.718,284.168h-1.003c-0.2,0-0.352-0.103-0.338-0.229l0.47-4.299
					c0.014-0.126,0.188-0.229,0.388-0.229h1.003c0.2,0,0.352,0.103,0.338,0.229l-0.47,4.299
					C239.092,284.065,238.917,284.168,238.718,284.168z"/>
				<path style="opacity:0.6;fill:#FAFAFA;" d="M238.718,284.168h-1.003c-0.2,0-0.352-0.103-0.338-0.229l0.47-4.299
					c0.014-0.126,0.188-0.229,0.388-0.229h1.003c0.2,0,0.352,0.103,0.338,0.229l-0.47,4.299
					C239.092,284.065,238.917,284.168,238.718,284.168z"/>
			</g>
		</g>
		<g>
			<path style="fill:#407BFF;" d="M221.46,241.29l-4.77,4.06c1.02,5.4,1.7,9.9,2.14,13.9C219.72,255.24,221.99,244.36,221.46,241.29
				z"/>
			<path style="opacity:0.3;" d="M221.46,241.29l-4.77,4.06c1.02,5.4,1.7,9.9,2.14,13.9C219.72,255.24,221.99,244.36,221.46,241.29z
				"/>
		</g>
		<g>
			<polygon style="fill:#FAFAFA;" points="322.513,256.603 257.641,256.603 248.239,294.91 313.111,294.91 			"/>
			<polygon style="fill:#FAFAFA;" points="289.645,287.776 249.97,297.028 224.508,289.893 224.77,287.776 			"/>
			<path style="fill:#E4897B;" d="M218.285,240.123c-0.777,2.543-1.617,5.177-2.361,7.782c-0.778,2.607-1.542,5.213-2.224,7.821
				c-0.667,2.608-1.327,5.209-1.829,7.763c-0.246,1.275-0.467,2.54-0.619,3.745c-0.154,1.144-0.195,2.611-0.167,2.533
				c0.055,0.35,0.438,1.08,1.098,1.816c0.652,0.744,1.543,1.499,2.504,2.212c1.943,1.442,4.225,2.729,6.573,3.933
				c2.353,1.212,4.814,2.315,7.32,3.336c2.483,1.063,5.071,2.029,7.577,2.953l-1.126,4.567c-2.87-0.453-5.597-1.09-8.376-1.788
				c-2.752-0.748-5.492-1.591-8.225-2.6c-2.729-1.026-5.433-2.224-8.116-3.852c-1.335-0.839-2.669-1.766-3.966-3.001
				c-1.273-1.233-2.609-2.787-3.384-5.101c-0.18-0.582-0.327-1.192-0.397-1.833l-0.046-0.482l-0.018-0.352l-0.024-0.644
				c-0.019-0.844,0.004-1.643,0.043-2.427c0.083-1.559,0.253-3.044,0.465-4.504c0.418-2.919,0.974-5.735,1.628-8.515
				c1.291-5.573,2.807-10.953,4.664-16.369L218.285,240.123z"/>
			<g>
				<path style="fill:#407BFF;" d="M212.763,226.955c-3.703,1.126-9.372,15.661-9.372,15.661l14.368,10.273
					c0,0,6.46-12.428,4.904-17.215C221.042,230.688,216.989,225.67,212.763,226.955z"/>
				<path style="opacity:0.2;" d="M212.763,226.955c-3.703,1.126-9.372,15.661-9.372,15.661l14.368,10.273
					c0,0,6.46-12.428,4.904-17.215C221.042,230.688,216.989,225.67,212.763,226.955z"/>
			</g>
			<path style="fill:#E4897B;" d="M234.294,284.339l8.634-2.187l-4.113,8.291c0,0-5.839,0.249-7.766-3.007L234.294,284.339z"/>
			<polygon style="fill:#E4897B;" points="249.902,285.301 246.083,292.057 238.815,290.443 242.928,282.152 			"/>
			<polygon style="fill:#263238;" points="324.509,256.603 259.637,256.603 250.235,294.91 315.107,294.91 			"/>
			<polygon style="fill:#263238;" points="315.107,294.91 314.845,297.028 249.97,297.028 250.232,294.91 			"/>
		</g>
		<path style="fill:#263238;" d="M246.389,186.417c8.744,3.5,9.462,8.536,9,4.976c-0.658-5.07-4.864-8.726-7.889-9.949
			C245.733,180.73,242.566,184.887,246.389,186.417z"/>
		<g>
			<path style="fill:#407BFF;" d="M230.095,190.965l-0.587,0.684c-0.18,0.209-0.16,0.523,0.043,0.709l4.714,4.307
				c0.196,0.179,0.496,0.178,0.691-0.002l0.814-0.754c0.224-0.207,0.217-0.563-0.015-0.762l-4.941-4.237
				C230.601,190.726,230.279,190.751,230.095,190.965z"/>
			<path style="opacity:0.3;" d="M230.095,190.965l-0.587,0.684c-0.18,0.209-0.16,0.523,0.043,0.709l4.714,4.307
				c0.196,0.179,0.496,0.178,0.691-0.002l0.814-0.754c0.224-0.207,0.217-0.563-0.015-0.762l-4.941-4.237
				C230.601,190.726,230.279,190.751,230.095,190.965z"/>
		</g>
		<g>
			<path style="fill:#407BFF;" d="M228.888,224.261c0.098,0.762,0.938,4.513,8.085,5.921c0,0-2.124,2.311-3.318,7.837
				c0,0-12.52-4.906-8.729-12.867c0.061-0.129,0.185-0.225,0.324-0.255l3.484-0.737
				C228.805,224.143,228.878,224.188,228.888,224.261z"/>
			<path style="opacity:0.6;fill:#FAFAFA;" d="M228.888,224.261c0.098,0.762,0.938,4.513,8.085,5.921c0,0-2.124,2.311-3.318,7.837
				c0,0-12.52-4.906-8.729-12.867c0.061-0.129,0.185-0.225,0.324-0.255l3.484-0.737
				C228.805,224.143,228.878,224.188,228.888,224.261z"/>
		</g>
		<g>
			<path style="fill:#407BFF;" d="M244.843,224.84c0.855,0.91,3.204,3.999-2.731,5.416c0,0,3.611,2.009,4.805,7.535
				c0,0,8.895-6.11,0.807-12.754c-0.019-0.015-0.042-0.026-0.066-0.029l-2.704-0.375
				C244.836,224.618,244.762,224.754,244.843,224.84z"/>
			<path style="opacity:0.6;fill:#FAFAFA;" d="M244.843,224.84c0.855,0.91,3.204,3.999-2.731,5.416c0,0,3.611,2.009,4.805,7.535
				c0,0,8.895-6.11,0.807-12.754c-0.019-0.015-0.042-0.026-0.066-0.029l-2.704-0.375
				C244.836,224.618,244.762,224.754,244.843,224.84z"/>
		</g>
	</g>
</g>
<g id="Bubbles">
	<g>
		<g>
			<path style="fill:#407BFF;" d="M329.711,167.3c-1.525-15.71-15.333-28.44-30.841-28.434
				c-15.508,0.007-26.842,12.748-25.317,28.458c1.017,10.475,7.499,19.62,16.3,24.553l-0.251,9.978l8.32-6.845
				c2.104,0.485,4.27,0.749,6.472,0.748C319.902,195.751,331.236,183.01,329.711,167.3z"/>
			<path style="opacity:0.6;fill:#FAFAFA;" d="M329.711,167.3c-1.525-15.71-15.333-28.44-30.841-28.434
				c-15.508,0.007-26.842,12.748-25.317,28.458c1.017,10.475,7.499,19.62,16.3,24.553l-0.251,9.978l8.32-6.845
				c2.104,0.485,4.27,0.749,6.472,0.748C319.902,195.751,331.236,183.01,329.711,167.3z"/>
		</g>
		<g>
			<path style="fill:#FAFAFA;" d="M304.019,162.357c-6.87-2.062-11.718-9.414-11.718-9.414s-2.124-0.12-2.036,1.812
				c0.154,3.396,2.215,5.846,3.448,7.02l-3.224-0.182c-1.149-0.065-2.282,0.059-3.356,0.365l-1.035,0.296
				c-1.787,0.51-2.704,2.409-2.07,4.282l2.139,6.315c0.684,2.019,2.11,3.76,3.966,4.842c1.638,0.955,3.5,1.332,5.266,1.067
				c3.22-0.484,8.231-1.242,9.097-1.398v0l2.305-0.199l-0.586-14.168L304.019,162.357z"/>
			<path style="fill:#407BFF;" d="M316.076,179.057l-8.982,0.004c-0.698,0-1.326-0.578-1.395-1.286l-1.563-16.092
				c-0.069-0.707,0.447-1.287,1.145-1.287l8.982-0.004c0.698,0,1.326,0.578,1.395,1.286l1.563,16.092
				C317.289,178.478,316.774,179.057,316.076,179.057z"/>
		</g>
	</g>
	<g>
		<path style="fill:#407BFF;" d="M183.889,244.222l-8.977-8.535c0.124-1.735,0.113-3.516-0.064-5.335
			c-1.686-17.362-16.946-31.431-34.084-31.423c-17.138,0.007-29.665,14.088-27.979,31.45c1.686,17.362,16.946,31.431,34.084,31.423
			c11.471-0.005,20.869-6.32,25.329-15.7L183.889,244.222z"/>
		<g>
			<path style="fill:#407BFF;" d="M158.183,219.117c-4.688-4.323-11.609-4.32-15.458,0.007c-4.689-4.323-11.609-4.32-15.458,0.007
				c-3.849,4.326-3.168,11.338,1.521,15.66l16.979,15.653l13.938-15.667C163.552,230.451,162.872,223.44,158.183,219.117z"/>
			<path style="opacity:0.6;fill:#FAFAFA;" d="M158.183,219.117c-4.688-4.323-11.609-4.32-15.458,0.007
				c-4.689-4.323-11.609-4.32-15.458,0.007c-3.849,4.326-3.168,11.338,1.521,15.66l16.979,15.653l13.938-15.667
				C163.552,230.451,162.872,223.44,158.183,219.117z"/>
		</g>
	</g>
</g>
</svg>
